<svg width="10" height="10" viewBox="0 0 10 10" fill="none" xmlns="http://www.w3.org/2000/svg">
<path d="M8.05557 3.0724C8.05557 4.86101 6.66668 5.13879 6.66668 6.80573C6.66668 7.66629 5.79918 7.73879 5.1389 7.73879C4.56862 7.73879 3.30946 7.5224 3.30946 6.80517C3.30946 5.13906 1.94446 4.86129 1.94446 3.0724C1.94446 1.39712 3.41251 0.0390625 5.02307 0.0390625C6.63418 0.0390625 8.05557 1.39712 8.05557 3.0724Z" fill="#FFD983"/>
<path d="M6.15753 9.02779C6.15753 9.25779 5.53697 9.72223 5.00003 9.72223C4.46308 9.72223 3.84253 9.25779 3.84253 9.02779C3.84253 8.79779 4.46281 8.8889 5.00003 8.8889C5.53697 8.8889 6.15753 8.79779 6.15753 9.02779Z" fill="#CCD6DD"/>
<path d="M6.30748 2.85929C6.19887 2.75068 6.02331 2.75068 5.9147 2.85929L4.99998 3.77401L4.08526 2.85929C3.97665 2.75068 3.80109 2.75068 3.69248 2.85929C3.58387 2.9679 3.58387 3.14346 3.69248 3.25207L4.7222 4.28179V7.22235C4.7222 7.37596 4.84665 7.50012 4.99998 7.50012C5.15331 7.50012 5.27776 7.37596 5.27776 7.22235V4.28179L6.30748 3.25207C6.41609 3.14346 6.41609 2.9679 6.30748 2.85929Z" fill="#FFCC4D"/>
<path d="M6.66665 8.611C6.66665 8.91767 6.41776 9.16656 6.11109 9.16656H3.88887C3.5822 9.16656 3.33331 8.91767 3.33331 8.611V6.94434H6.66665V8.611Z" fill="#99AAB5"/>
<path d="M3.33305 8.88909C3.19972 8.88909 3.08194 8.79271 3.05944 8.65687C3.03416 8.50576 3.13639 8.36243 3.28778 8.33743L6.62111 7.78187C6.77222 7.75465 6.91555 7.85882 6.94055 8.01021C6.96583 8.16132 6.86361 8.30465 6.71222 8.32965L3.37889 8.88521C3.36361 8.88798 3.34805 8.88909 3.33305 8.88909ZM3.33305 7.77798C3.19972 7.77798 3.08194 7.68159 3.05944 7.54576C3.03416 7.39465 3.13639 7.25132 3.28778 7.22632L6.62111 6.67076C6.77222 6.64382 6.91555 6.74771 6.94055 6.89909C6.96583 7.05021 6.86361 7.19354 6.71222 7.21854L3.37889 7.77409C3.36361 7.77687 3.34805 7.77798 3.33305 7.77798Z" fill="#CCD6DD"/>
</svg>
